<svg width="24" height="24" viewBox="0 0 24 24" fill="none" xmlns="http://www.w3.org/2000/svg">
<path fill-rule="evenodd" clip-rule="evenodd" d="M18.6448 16.4564C19.5006 15.1829 20 13.6498 20 12C20 7.58172 16.4183 4 12 4C10.3488 4 8.8145 4.50023 7.54028 5.35741L18.6448 16.4564ZM17.3278 17.9679L6.0295 6.67511C4.76722 8.08945 4 9.95513 4 12C4 16.4183 7.58172 20 12 20C14.0463 20 15.9131 19.2317 17.3278 17.9679ZM12 2C17.5228 2 22 6.47715 22 12C22 17.5228 17.5228 22 12 22C6.47715 22 2 17.5228 2 12C2 6.47715 6.47715 2 12 2Z" fill="#92929D"/>
</svg>
